<svg width="167" height="31" viewBox="0 0 167 31" fill="none" xmlns="http://www.w3.org/2000/svg">
<path d="M0.8 30V1.2H5.68L15.2 20.32L24.72 1.2H29.6V30H24.52V12.8L16.16 30H14.24L5.88 12.8V30H0.8ZM47.5741 30.6C44.6941 30.6 42.2074 29.9733 40.1141 28.72C38.0341 27.4667 36.4274 25.7133 35.2941 23.46C34.1741 21.2067 33.6141 18.5867 33.6141 15.6C33.6141 12.6133 34.1741 9.99333 35.2941 7.74C36.4274 5.48667 38.0341 3.73333 40.1141 2.48C42.2074 1.22667 44.6941 0.599999 47.5741 0.599999C50.4541 0.599999 52.9341 1.22667 55.0141 2.48C57.1074 3.73333 58.7141 5.48667 59.8341 7.74C60.9674 9.99333 61.5341 12.6133 61.5341 15.6C61.5341 18.5867 60.9674 21.2067 59.8341 23.46C58.7141 25.7133 57.1074 27.4667 55.0141 28.72C52.9341 29.9733 50.4541 30.6 47.5741 30.6ZM47.5741 25.48C49.4007 25.5067 50.9207 25.1133 52.1341 24.3C53.3474 23.4867 54.2541 22.3333 54.8541 20.84C55.4674 19.3467 55.7741 17.6 55.7741 15.6C55.7741 13.6 55.4674 11.8667 54.8541 10.4C54.2541 8.93333 53.3474 7.79333 52.1341 6.98C50.9207 6.16667 49.4007 5.74667 47.5741 5.72C45.7474 5.69333 44.2274 6.08666 43.0141 6.9C41.8007 7.71333 40.8874 8.86666 40.2741 10.36C39.6741 11.8533 39.3741 13.6 39.3741 15.6C39.3741 17.6 39.6741 19.3333 40.2741 20.8C40.8874 22.2667 41.8007 23.4067 43.0141 24.22C44.2274 25.0333 45.7474 25.4533 47.5741 25.48ZM70.5156 30L61.7156 1.2H67.3156L74.5156 24.88L81.8356 1.2H87.4356L78.6356 30H70.5156ZM90.8484 30V1.2H96.2884V30H90.8484ZM102.284 30V1.2H121.084V6.28H107.724V12.44H118.684V17.52H107.724V24.92H121.084V30H102.284ZM132.398 24.6V17.68H125.478V13.48H132.398V6.6H136.598V13.48H143.478V17.68H136.598V24.6H132.398ZM155.211 24.6V17.68H148.291V13.48H155.211V6.6H159.411V13.48H166.291V17.68H159.411V24.6H155.211Z" fill="white"/>
</svg>
